<svg width="22" height="22" viewBox="0 0 22 22" fill="none" xmlns="http://www.w3.org/2000/svg">
<path fill-rule="evenodd" clip-rule="evenodd" d="M1.75 5C1.75 3.20507 3.20507 1.75 5 1.75H14C14.4142 1.75 14.75 1.41421 14.75 1C14.75 0.585786 14.4142 0.25 14 0.25H5C2.37665 0.25 0.25 2.37665 0.25 5V17C0.25 19.6234 2.37665 21.75 5 21.75H17C19.6234 21.75 21.75 19.6234 21.75 17V8C21.75 7.58579 21.4142 7.25 21 7.25C20.5858 7.25 20.25 7.58579 20.25 8V12.5091C20.2049 12.473 20.158 12.4387 20.1094 12.4063L17.7285 10.819C16.142 9.76132 14.0295 9.9705 12.6812 11.3188L9.31875 14.6812C7.9705 16.0295 5.85802 16.2387 4.27153 15.181L1.75 13.5V5ZM10 7.5C10 8.88071 8.88071 10 7.5 10C6.11929 10 5 8.88071 5 7.5C5 6.11929 6.11929 5 7.5 5C8.88071 5 10 6.11929 10 7.5ZM18.1292 1.43934L14.7081 4.86045C14.5791 4.9894 14.4879 5.15116 14.4442 5.32823L14.015 7.06973C13.925 7.4348 14.255 7.76484 14.6201 7.67486L16.3616 7.2456C16.5387 7.20196 16.7004 7.11072 16.8294 6.98177L20.2505 3.56066C20.8363 2.97487 20.8363 2.02513 20.2505 1.43934C19.6647 0.853553 18.715 0.853553 18.1292 1.43934Z" fill="#28303F"/>
</svg>
